<svg version="1" xmlns="http://www.w3.org/2000/svg" width="682.667" height="682.667" viewBox="0 0 512.000000 512.000000"><path d="M156 19.1c-10.3 1.3-23.5 5.6-33.4 10.7-7.1 3.6-11 6.5-17.6 13.2-4.7 4.7-9.5 9.8-10.6 11.4l-2 2.9-4.9-1.6C76 52 62.5 51.1 50 53.1 36 55.3 14.8 64.4 6 71.9l-3 2.6 1.6 5.1 1.7 5.1-3.2 3c-3.6 3.5-3.9 6-1.2 13.5 1 2.9 6.7 20.4 12.6 38.8 6 18.4 11.2 33.7 11.7 33.8.4.2.6.7.3 1.1-.5.9 6.4 22.2 7.4 23.1.3.3.6.9.6 1.5.1 3 1.8 7.5 2.8 7.5.7 0 19.4-6 41.8-13.3 33.2-10.9 41-13.2 43.5-12.5 6 1.7 13.8-.8 18.6-5.9 2.3-2.4 9.1-4.9 42.8-15.8 27.9-9.1 40-13.4 40-14.4 0-2.2-17.4-54.5-18.3-54.9-.4-.2-.5-.7-.2-1.1.5-.9-6.4-22.2-7.4-23.1-.3-.3-.6-1.2-.7-2-.3-3.8-9.8-31.6-11.2-32.8-.9-.6-3-1.2-4.8-1.2-3 0-3.2-.3-4.8-6l-1.7-6-6.2.1c-3.4.1-9.1.5-12.7 1zm21.4 29.1c4.1 12.8 12 37 17.5 53.8 5.5 16.7 9.9 30.5 9.8 30.6-.1.1-3.8.4-8.2.8-18.7 1.4-41.7 11.7-61 27.3l-6 4.9-6.6-20.3c-5.8-17.5-6.4-20.3-4.8-19.8 1 .4 1.9.4 1.9.2s-2.2-6.9-4.9-14.8c-12.9-38.4-16.2-49.8-15-52.2 2.4-4.4 13.5-15.1 20.7-19.8 11.5-7.5 28.9-13.2 42.3-13.8l6.7-.2 7.6 23.3zM83.5 61.7l6 1.9L99.7 95c5.7 17.3 10.5 32.1 10.8 32.9.5 1.2.8 1.1 1.8-.2s2.3 1.9 7.8 18.9l6.7 20.4H112c-24.6 0-47.1 5.1-59.9 13.6-3 1.9-5.5 3.3-5.8 3.1-.5-.6-7.9-22.9-22.8-68.6C12 79.5 11.2 76.6 12.8 75.4c4.5-3.5 24.6-12.6 31.7-14.4 10.4-2.6 29.9-2.3 39 .7zM190 254.6c-10.7 56.4-19.8 103-20.1 103.5-.3.6-37.8 6.6-83.3 13.3-45.4 6.8-82.8 12.5-83.1 12.7-.9 1 222 80.3 225 80.1 5-.4 195.8-26.2 196.2-26.5.6-.7 61.3-258 60.9-258.4-.3-.4-272-27.3-275.1-27.3-.6 0-9.8 46.1-20.5 102.6zm152.8-69.2c62.3 7.3 113.4 13.5 113.7 13.7.4.5-50.1 214.8-50.7 215.5-.8.7-218.2-61.3-218.5-62.3-.3-.9 33.1-176.3 34.2-180.1.3-.8 1.6-1.1 4.2-.7 2.1.4 54.8 6.6 117.1 13.9zM172 418.9l29.5 9.8-9.5 1.2c-22.1 2.8-18.7 3.4-45.5-6.9-13.2-5.1-24.9-9.6-26-10-1.6-.6 10.8-2.9 21-3.9.6 0 14.3 4.4 30.5 9.8z"/><path d="M497.6 187.7c-.3 1-14 59.3-30.5 129.6-16.5 70.4-30.2 128.1-30.4 128.4-.3.2-47.8 7.4-105.6 15.8l-105.2 15.4-112.7-41.3L.5 394.4l-.3 6.4c-.2 3.6.1 6.9.5 7.3.4.4 50.8 19.9 112 43.3l111.1 42.5 34.4-5.4c146.1-23.2 191-30.4 191.2-30.7.6-.7 62.6-259.4 62.6-260.9 0-.8-2.6-3.3-5.7-5.5-8.1-5.6-8.1-5.6-8.7-3.7z"/><path d="M123.7 236.6c-.4.5-2.6.7-4.7.5-2.2-.1-4 .1-4 .6 0 .4-1.6.9-3.6 1-4.4.2-14.5 4.9-20.6 9.6-2.6 2-5 3.2-5.3 2.6-.4-.5-1.1-.7-1.6-.4-.5.4-.9.1-.9-.4 0-1.6-8.8-5.7-16.4-7.6-5.2-1.3-9.7-1.6-18.5-1.3-6.4.2-12.3.8-13.1 1.3-.8.5-2.7 1-4.2 1.2-1.6.1-4.5 1-6.4 1.8-3.6 1.5-3.6 1.6-3 5.6.6 3.5.4 4.1-1.4 4.6-1.1.3-2 1-2 1.5s-.4.7-.9.4c-.5-.3-1.1.1-1.4.8-.7 1.9.4 26.6 1.2 26.6.3 0 .5 3 .5 6.7-.1 3.8.3 15.6.8 26.3.8 15.8 1.3 19.7 2.6 20.7 1.1.9 1.2 1.3.3 1.3-.8 0-1.1 1-.9 2.7.3 2.9 2.6 4 5.6 2.8.9-.4 4.4-.7 7.7-.6 3.3 0 15.7-.5 27.5-1.2 17.5-1 22-1 24 0 1.4.7 4 1.3 5.8 1.3 3.7 0 10.6-2.6 9.9-3.7-.3-.5 3.2-.8 7.6-.8 19.5-.1 52.4-2.3 53.2-3.5.7-1.1-1.7-46-2.4-46-.3 0-.7-7.9-.9-17.5-.4-19.8-.9-22.5-4.3-24.2-1.8-.9-2.5-2.2-2.9-5.5-.5-4.3-.5-4.3-6-5.5-7.5-1.7-20.3-2.7-21.3-1.7zm19.9 6.4c2.5 1 2.9 3.4 3.9 22 1.2 25 2.6 50.9 2.9 56.5.4 5.5.3 5.8-1 4-1.3-1.8-2.8-2-12.7-2.2-10.4-.2-21.7 1.2-21.7 2.6 0 .3-1.4.7-3 .8-1.7.1-6.9 1.8-11.5 3.6-7.1 2.8-8.5 3.1-8.5 1.8 0-.9-.3-7.6-.6-15-.4-9.5-.3-13.1.5-12.7.7.5 1.1-1.1 1.1-4.8 0-4.2-.4-5.7-1.7-6.5-1.2-.7-1.3-1-.4-1.1 1.1 0 1.2-2.8.7-15.3-.4-8.3-.9-16.4-1.2-17.9-.4-2.2.1-3.3 2.3-5.2 5.9-5.3 18.2-10.5 27.8-12 4.2-.6 20.3.4 23.1 1.4zm-78.3 4.5c5.1 1.3 12.5 4.6 16.6 7.3 1.5 1 1.6 2.1 3.1 30.5.8 14.3 1.4 19.3 2.5 20.4 1 .9 1.5 3.5 1.5 7.2 0 3.2.3 9.2.6 13.3l.7 7.6-9.4-2.4c-5.2-1.4-10.4-2.3-11.7-2.1-1.2.3-2.5 0-2.8-.4-.9-1.5-23.6-1-29 .6-6.6 2-7 1.9-6.9-1.3.1-1.5-.4-12.6-1.1-24.7-.7-12.1-1.6-29.1-2-37.7l-.7-15.7 5.4-1.5c8.3-2.3 8.8-2.4 18.4-2.5 5.2-.1 11.5.5 14.8 1.4z"/></svg>