<svg id="asztalGyerekVirag" xmlns="http://www.w3.org/2000/svg" viewBox="0 0 1920 1080"><defs><linearGradient id="Névtelen_színátmenet_64" x1="1061.2" y1="625.91" x2="1976.33" y2="97.56" gradientUnits="userSpaceOnUse"><stop offset="0" stop-color="#ffd95e"/><stop offset="1" stop-color="#fdc30a"/></linearGradient><linearGradient id="Névtelen_színátmenet_57" x1="1087.11" y1="610.49" x2="1976.13" y2="97.22" gradientUnits="userSpaceOnUse"><stop offset="0" stop-color="#ffbc27"/><stop offset="1" stop-color="#fb9e01"/></linearGradient><style>.asztalGyerekVirag-1{fill:url(#Névtelen_színátmenet_64)}.asztalGyerekVirag-2{fill:url(#Névtelen_színátmenet_57)}.asztalGyerekVirag-3,.asztalGyerekVirag-5{fill:#00000f}.asztalGyerekVirag-13,.asztalGyerekVirag-16,.asztalGyerekVirag-17,.asztalGyerekVirag-18,.asztalGyerekVirag-19,.asztalGyerekVirag-20,.asztalGyerekVirag-21,.asztalGyerekVirag-24,.asztalGyerekVirag-25,.asztalGyerekVirag-26,.asztalGyerekVirag-27,.asztalGyerekVirag-28,.asztalGyerekVirag-29,.asztalGyerekVirag-3,.asztalGyerekVirag-30,.asztalGyerekVirag-31,.asztalGyerekVirag-32,.asztalGyerekVirag-33,.asztalGyerekVirag-34,.asztalGyerekVirag-35,.asztalGyerekVirag-4,.asztalGyerekVirag-7,.asztalGyerekVirag-9{fill-rule:evenodd}.asztalGyerekVirag-4,.asztalGyerekVirag-6{fill:#3b405f}.asztalGyerekVirag-7,.asztalGyerekVirag-8{fill:#101537}.asztalGyerekVirag-14,.asztalGyerekVirag-9{fill:#070725}.asztalGyerekVirag-10{fill:#d58750}.asztalGyerekVirag-11,.asztalGyerekVirag-16{fill:#b56b41}.asztalGyerekVirag-12,.asztalGyerekVirag-20{fill:#fff}.asztalGyerekVirag-13{fill:#e4e1e8}.asztalGyerekVirag-15{fill:#aeabba}.asztalGyerekVirag-17{fill:#ed7862}.asztalGyerekVirag-18{fill:#f5ac83}.asztalGyerekVirag-19{fill:#d64c47}.asztalGyerekVirag-21{fill:#181d3b}.asztalGyerekVirag-22,.asztalGyerekVirag-25{fill:#f18a00}.asztalGyerekVirag-23,.asztalGyerekVirag-26{fill:#fcc100}.asztalGyerekVirag-24{fill:#707386}.asztalGyerekVirag-27{fill:#9fb2d9}.asztalGyerekVirag-28{fill:#b4c5e6}.asztalGyerekVirag-29{fill:#c0cdea}.asztalGyerekVirag-30{fill:#e1e8f6}.asztalGyerekVirag-31{fill:#294d3c}.asztalGyerekVirag-32{fill:#4a9075}.asztalGyerekVirag-33{fill:#1b7154}.asztalGyerekVirag-34{fill:#a6c86b}.asztalGyerekVirag-35{fill:#5f9850}.asztalGyerekVirag-36{fill:none}</style></defs><g id="Réteg_2" data-name="Réteg 2"><g id="Réteg_1" data-name="Réteg 1"><path id="HatterMinta" class="asztalGyerekVirag-1" d="M919.5 0s-135.37 100.94-79.94 237c40.94 100.5 126 136.92 151.94 177 27.55 42.57 31.08 58 38.5 109 12.4 85.31 61.5 149.5 168.08 154.58 103.08 4.92 187.92 23.49 240 76.5 251.49 256 481.93 82.59 481.93 82.59V0z"/><path id="EloterMinta" class="asztalGyerekVirag-2" d="M926.09 0s-117 83.94-61.53 220c40.94 100.5 126 136.92 151.94 177 27.55 42.57 31.08 58 38.5 109 12.4 85.31 61.5 149.5 168.08 154.58 103.08 4.92 187.57 23.84 240 76.5C1678 953 1920 833.08 1920 833.08V0z"/>
    <g id="Monitor">
        <animate attributeType="CSS" attributeName="opacity" 
           from="0" to="1" dur=".2s" id="monitor-anim-elotunes" fill="freeze" />
        <animateTransform attributeName="transform" type="translate"
           from="0 0" to="0 310" dur=".3s" repeatCount="" fill="freeze" id="monitor-anim-leeses"/>
        
        <path class="asztalGyerekVirag-3" d="M1268.43 184.82h68a4.5 4.5 0 014.49 4.49 4.5 4.5 0 01-4.49 4.49h-68a4.5 4.5 0 01-4.49-4.49 4.5 4.5 0 014.49-4.49z"/><path class="asztalGyerekVirag-4" d="M1270.71 152.82h31.48a.56.56 0 01.54.47l5.64 40a.4.4 0 01-.41.47h-43a.4.4 0 01-.4-.47l5.64-40a.56.56 0 01.51-.47z"/><path class="asztalGyerekVirag-4" d="M1251.83 184.82h68a4.5 4.5 0 014.49 4.49 4.5 4.5 0 01-4.49 4.49h-68a4.5 4.5 0 01-4.49-4.49 4.5 4.5 0 014.49-4.49z"/><path class="asztalGyerekVirag-5" d="M1217.59 64.62h150.79a2.32 2.32 0 012.32 2.32v100.84a2.33 2.33 0 01-2.33 2.33h-150.78a2.32 2.32 0 01-2.32-2.32V66.94a2.32 2.32 0 012.32-2.32z"/><path class="asztalGyerekVirag-6" d="M1210.22 64.62H1361a2.32 2.32 0 012.32 2.32v100.84a2.32 2.32 0 01-2.32 2.32h-150.78a2.33 2.33 0 01-2.33-2.33V66.94a2.33 2.33 0 012.33-2.33z"/><path class="asztalGyerekVirag-7" d="M1211.48 66.13h148.27a1.55 1.55 0 011.54 1.54v90.93a1 1 0 01-1 1H1210.9a1 1 0 01-1-1V67.67a1.55 1.55 0 011.58-1.54z"/><path class="asztalGyerekVirag-8" d="M1214.29 70.49h142.64v84.71h-142.64z"/><path class="asztalGyerekVirag-7" d="M1298.83 174.26l1.49 10.56h6.84l-2.07-14.71h-37.29l-.52 3.68h31a.56.56 0 01.55.47z"/></g><g id="Asztal"><path class="asztalGyerekVirag-7" d="M1286.67 490.4h-88.42a9 9 0 00-9 9 9 9 0 009 9h88.42a9 9 0 009-9 9 9 0 00-9-9z"/><path class="asztalGyerekVirag-9" d="M1303.55 490.4h-41a9 9 0 00-9 9 9 9 0 009 9h41a9 9 0 009-9 9 9 0 00-9-9z"/><rect class="asztalGyerekVirag-8" x="1070" y="505.09" width="284.25" height="33.52" rx="5.03" ry="5.03"/><path class="asztalGyerekVirag-3" d="M1349.36 505.09h-274.47a5 5 0 00-4.89 5v9.23a5 5 0 004.89 5h274.47a5 5 0 004.89-5v-9.23a5 5 0 00-4.89-5z"/><rect class="asztalGyerekVirag-5" x="1343.48" y="505.51" width="86.29" height="183.21" rx="5.21" ry="5.21"/><rect class="asztalGyerekVirag-8" x="1277.06" y="505.51" width="77.24" height="183.21" rx="4.67" ry="4.67"/><rect class="asztalGyerekVirag-10" x="1056.55" y="499.38" width="297.69" height="11.42" rx="1.71" ry="1.71"/><rect class="asztalGyerekVirag-11" x="1351.21" y="499.38" width="87.44" height="11.42" rx="1.71" ry="1.71"/><rect class="asztalGyerekVirag-12" x="1282.84" y="516.58" width="65.68" height="52.66" rx="3.89" ry="3.89"/><path class="asztalGyerekVirag-13" d="M1282.88 565.94H1340a3.9 3.9 0 003.49-2.17 3.85 3.85 0 00.4-1.72v-44.89a3.77 3.77 0 000-.58h.79a3.9 3.9 0 013.89 3.89v44.88a3.9 3.9 0 01-3.89 3.89h-57.9a3.9 3.9 0 01-3.9-3.3z"/><rect class="asztalGyerekVirag-14" x="1300.21" y="519.69" width="30.95" height="3.48" rx="1.5" ry="1.5"/><rect class="asztalGyerekVirag-12" x="1282.84" y="572.03" width="65.68" height="52.66" rx="3.89" ry="3.89"/><path class="asztalGyerekVirag-13" d="M1282.88 621.38H1340a3.9 3.9 0 003.49-2.17 3.84 3.84 0 00.4-1.72v-44.88a3.79 3.79 0 000-.58h.79a3.9 3.9 0 013.89 3.89v44.88a3.9 3.9 0 01-3.89 3.89h-57.9a3.91 3.91 0 01-3.9-3.31z"/><rect class="asztalGyerekVirag-14" x="1300.21" y="575.14" width="30.95" height="3.48" rx="1.5" ry="1.5"/><rect class="asztalGyerekVirag-12" x="1282.84" y="627.48" width="65.68" height="52.66" rx="3.89" ry="3.89"/><path class="asztalGyerekVirag-13" d="M1282.88 676.84H1340a3.9 3.9 0 003.49-2.17 3.85 3.85 0 00.4-1.72v-44.89a3.8 3.8 0 000-.58h.79a3.9 3.9 0 013.89 3.89v44.88a3.9 3.9 0 01-3.89 3.89h-57.9a3.9 3.9 0 01-3.9-3.3z"/><rect class="asztalGyerekVirag-14" x="1300.21" y="630.59" width="30.95" height="3.48" rx="1.5" ry="1.5"/><rect class="asztalGyerekVirag-15" x="1115.59" y="505.51" width="11.4" height="185.43" rx=".46" ry=".46"/><rect class="asztalGyerekVirag-12" x="1113.82" y="505.51" width="7.94" height="185.43" rx="2.34" ry="2.34"/><rect class="asztalGyerekVirag-15" x="1066.54" y="505.51" width="11.4" height="185.43" rx=".46" ry=".46"/><rect class="asztalGyerekVirag-12" x="1064.78" y="505.51" width="7.94" height="185.43" rx="2.34" ry="2.34"/><path class="asztalGyerekVirag-16" d="M1229.12 499.38h-170.85a1.72 1.72 0 00-1.71 1.71v8a1.72 1.72 0 001.71 1.71H1218a63.87 63.87 0 0111.12-11.42z"/></g>
    
    <g id="Gyerek" opacity="0">
        <animate attributeType="CSS" attributeName="opacity" 
           from="0" to="1" dur=".2s"  id="gyerek-anim-elotunes" begin="monitor-anim-leeses.end + .05s" fill="freeze"/>                
        <animateTransform attributeName="transform" type="translate"
           from="0 0" to="510 0" dur=".3s" fill="freeze" id="gyerek-anim-oldalazas" begin="monitor-anim-leeses.end + .05s" />
        
        <path class="asztalGyerekVirag-17" d="M653.08 449.8l-2.15 3.59s-.83 4.36.41 7.34-14.23 6.21-14.23 6.21l-12-9.68-2.65-3.31s5.63-6.12 6-8.77 24.62 4.62 24.62 4.62z"/><path class="asztalGyerekVirag-18" d="M679.81 484.11s8.11 6.54 10.92 7 15.14-5.21 17.62-5.87 8-.66 11.92-.66 8 1.49 10.1 5.79h-8.27c-2.23 0-9.77 6.12-17 11.09s-13.07 9.1-17.88 8.61-21.35-12.91-21.35-12.91z"/><path class="asztalGyerekVirag-17" d="M705.05 501.49c-7.28 5-13.07 9.1-17.88 8.61s-21.35-12.91-21.35-12.91l14-13.07s1.88 1.51 4.13 3.13c-5.89 9.36-3.24 13.41 3.68 16.17 5.54 2.22 19.64-5.49 28.51-9.79-3.21 2.2-7.14 5.19-11.09 7.86z"/><path class="asztalGyerekVirag-9" d="M613.64 560.5s41.87-.38 47 .06 10.17 5.89 9.31 14.31-12.58 74-12.58 74a4.93 4.93 0 01-1.7.77c-.91.19-8.4 1.42-8.4 1.42l-.51-6.08 4.38-63.79-38.62-7z"/><path class="asztalGyerekVirag-19" d="M646.81 645a2.07 2.07 0 00-1.26 1.36 66.22 66.22 0 00-1.11 9.4c.07 1 2.66 3 7.08 4.91s21.24 6.79 21.24 6.79l.19-.61a2.26 2.26 0 001.11-1.38 6.36 6.36 0 00-.71-4.63c-.92-1.31-6.35-5-7.34-5.83s-5.91-7.64-6.31-8.1a5.28 5.28 0 00-6.07-.39c-3.09 1.68-6.56 1.08-6.82-1.52z"/><path class="asztalGyerekVirag-20" d="M672.94 666.83s-16.78-6.16-20.46-7.45a33.94 33.94 0 01-8-4.79 1.39 1.39 0 00-.72.76c-.13.49-.22 2.21-.27 2.57a2.91 2.91 0 001.92 2.77c1.84.79 25.28 9 26.35 9.4s1.5-2.48 1.5-2.48.07-.61-.32-.78z"/><path class="asztalGyerekVirag-21" d="M587.72 534.51s111.91 12.92 118 14.25 11.25 8.61 8.94 18.54-27.37 89.7-27.37 89.7a6 6 0 01-2.15.66c-1.12.08-10.26.41-10.26.41l-3.6-3.68 20-71.18-81.73-4.21c-22.94-3.66-26.05-31.58-21.83-44.49z"/><path class="asztalGyerekVirag-19" d="M666.45 543s-8.94 6.62-14.32 4.47-31.2-46.76-31.2-46.76l12.41-44.69a116.61 116.61 0 0118.12 2.48l1.86 1.7s7.28 1.24 11.42 5.87 17.71 16.72 18.21 17.71-11.83 14.56-15 16.72a2.55 2.55 0 01-2.4-.41l-1.49-1.2s-3.31 17.24-3.31 22.34v5.11s1.74 13.18 3.06 14.42 2.64 2.24 2.64 2.24z"/><path class="asztalGyerekVirag-20" d="M626.5 551.53a3.75 3.75 0 110-7.51h33.1a16.52 16.52 0 0016-12.89 61.08 61.08 0 016.88 3.34 24 24 0 01-22.93 17.06z"/><path class="asztalGyerekVirag-14" d="M616.78 581.27h9.51v78.25h-9.51z"/><path class="asztalGyerekVirag-5" d="M629.65 554.98h9.27v21.18h-9.27zM565.6 554.98h9.27v21.18h-9.27z"/><path class="asztalGyerekVirag-6" d="M616.78 579.41h9.51a5.51 5.51 0 015.51 5.51v10.17a5.5 5.5 0 01-5.5 5.5h-9.51a5.51 5.51 0 01-5.51-5.51v-10.17a5.51 5.51 0 015.51-5.51z"/><rect class="asztalGyerekVirag-14" x="607.63" y="577.76" width="27.8" height="15.95" rx="1.58" ry="1.58"/><path class="asztalGyerekVirag-22" d="M617.4 571.7h77.12a5.29 5.29 0 015.29 5.29v6a5.3 5.3 0 01-5.3 5.3H617.4a5.3 5.3 0 01-5.3-5.3v-6a5.3 5.3 0 015.3-5.3z"/><rect class="asztalGyerekVirag-23" x="556" y="571.7" width="87.72" height="16.55" rx="5.3" ry="5.3"/><path class="asztalGyerekVirag-6" d="M616.78 654.41h9.51a5.51 5.51 0 015.51 5.51v10.17a5.5 5.5 0 01-5.5 5.5h-9.51a5.5 5.5 0 01-5.5-5.5v-10.17a5.51 5.51 0 015.51-5.51z"/><rect class="asztalGyerekVirag-14" x="607.63" y="664.5" width="27.8" height="23.03" rx="2.28" ry="2.28"/><path class="asztalGyerekVirag-24" d="M596.3 681.89a6.85 6.85 0 006.83 6.83h36.83a6.85 6.85 0 006.83-6.83 6.85 6.85 0 00-6.83-6.83h-36.84a6.85 6.85 0 00-6.82 6.83z"/><path class="asztalGyerekVirag-7" d="M560.46 688.72a6.85 6.85 0 006.83 6.83h93.59a6.85 6.85 0 006.83-6.83 6.85 6.85 0 00-6.83-6.83h-93.59a6.85 6.85 0 00-6.83 6.83z"/><path class="asztalGyerekVirag-3" d="M619.05 688.72a6.85 6.85 0 006.83 6.83h49.9a6.85 6.85 0 006.83-6.83 6.85 6.85 0 00-6.83-6.83h-49.9a6.85 6.85 0 00-6.83 6.83z"/><path class="asztalGyerekVirag-20" d="M640.4 526.37a3.75 3.75 0 100 7.51h33.1a16.5 16.5 0 0116.44 16.44v29.83a3.75 3.75 0 107.51 0v-29.83a24 24 0 00-23.95-23.95z"/><path class="asztalGyerekVirag-25" d="M566.92 486.39a41.25 41.25 0 0141.13-41.13h5.46a41.25 41.25 0 0141.13 41.13v61.17a10.6 10.6 0 01-10.57 10.57h-66.58a10.6 10.6 0 01-10.57-10.57z"/><path class="asztalGyerekVirag-26" d="M556 486.39a41.25 41.25 0 0141.13-41.13h5.46a41.25 41.25 0 0141.13 41.13v61.17a10.6 10.6 0 01-10.57 10.57h-66.58A10.6 10.6 0 01556 547.56z"/><path class="asztalGyerekVirag-19" d="M672.15 651.51a3.22 3.22 0 00-2.34 1.21c-.91 1.2-4.14 9.48-4.3 10.72s3.31 4.39 9.68 7.94 31.24 14.48 31.24 14.48l.46-.66a3.32 3.32 0 002.11-1.28 6 6 0 00.17-5.67c-1.07-1.82-8.52-7.86-9.85-9.1s-7.12-10.8-7.62-11.46-4.1-3.39-9.35-2.32-10.51-.71-10.2-3.86z"/><path class="asztalGyerekVirag-20" d="M706.88 685.2s-24.46-12.37-29.83-15-11.16-8.08-11.16-8.08-1 .14-1.33.67a30.2 30.2 0 00-1.12 2.94c-.16.42-.41 2.36 2.24 3.85s36.91 18.37 38.48 19.12 3-2.46 3-2.46.28-.72-.28-1.04z"/><path class="asztalGyerekVirag-18" d="M660.2 399.44l-4-.93a17.77 17.77 0 00-21.29 13.22l-4.45 19A17.77 17.77 0 00643.71 452l4 .93a17.77 17.77 0 0021.29-13.2l4.44-19a17.77 17.77 0 00-13.24-21.29z"/><path class="asztalGyerekVirag-17" d="M634.43 413.91l-3.94 16.82A17.77 17.77 0 00643.71 452l4 .93a17.61 17.61 0 0011.29-1.11c-.47.2-3.84 1.51-4.59-1-.81-2.67 3.79-11.23 3.79-11.23a1.07 1.07 0 00-.08-1.09 15.94 15.94 0 01-1.87-10.94c1.15-5.7-6.23-9.68-6.23-9.68l17.07 4.62v3.5a8.16 8.16 0 016.1-4.31l.23-1A17.64 17.64 0 00671.6 408c-5.66.73-24.21 3.1-37.17 5.91z"/><path class="asztalGyerekVirag-7" d="M666 431.34s1.55-.17 2.06-2.35l.68-2.9a18.24 18.24 0 002.62-6.36s10.1-1.41 12.06-10.76-6.74-19.23-8-20.21-6.65-2.84-13.39.19c0 0-1.15.71-3.35-.18s-14.68-4.4-20.68-4.59-9.85 6-12.66 13.48A4.37 4.37 0 00622 394c-3-.63-1.4 5 .78 7 0 0-5.15 2.64-6.13 8.15s.88 29.78 5.48 34.62 16.2 6.91 19.9 7.78 11-3 14-13.12c0 0-1.46-5.06-.26-9.23s2.3-7.23 3.86-7.77 5.41 3.49 5.74 5.3A11.34 11.34 0 01665 431a1.46 1.46 0 001 .34z"/><path class="asztalGyerekVirag-9" d="M666 431.34s1.55-.17 2.06-2.35l.68-2.9a18.28 18.28 0 002.62-6.37s10.1-1.41 12.06-10.76-6.74-19.23-8-20.21c0 0 9.52 10.39-1 15.72s-26 8.72-36.19 8.08-17.41-18.3-17.41-18.32c-1.17 1.11.23 5.15 2 6.74 0 0-5.15 2.64-6.13 8.15s.88 29.78 5.48 34.62 16.2 6.91 19.9 7.78 11-3 14-13.12c0 0-1.46-5.06-.26-9.23s2.3-7.23 3.86-7.77 5.41 3.49 5.74 5.3a11.34 11.34 0 01-.41 4.3 1.46 1.46 0 001 .34z"/></g>
    
    <g id="Viragok" opacity="0">
        <animate attributeType="CSS" attributeName="opacity" 
           from="0" to="1" dur=".3s"  id="virag-anim-elotunes" begin="gyerek-anim-oldalazas.end + .05s" fill="freeze"/>        
        <animateTransform attributeName="transform" type="translate"
           from="0 0" to="-360 0" dur=".3s" fill="freeze" id="virag-anim-oldalazas" begin="gyerek-anim-oldalazas.end + .05s"/>
        
        <path class="asztalGyerekVirag-27" d="M1818.47 632.91s21.67-11.18 17.7-38.62 12.83-36.13 17.07-44.29-5.29-21.33-4.2-32.86 14.38-14.61 8.15-30.43-1-21.82 7.24-38.76-4-42.83-9.73-42.69 1.27 6.2-3.81 17.46-26.5 14.69-33.2 24.11 5.08 21.89-2.57 34.6-30.43 8.77-36.46 21.1 8.34 27.12 4.16 40-19.57 20.26-26 30.65-18.61 30.29 1.26 54.05 60.39 5.68 60.39 5.68z"/><path class="asztalGyerekVirag-28" d="M1836.44 605.07q.17-1.62.21-3.35l-58.89 33.09 5.21-13.53a1.58 1.58 0 00.07-.17l2.67-6.94 49.86-28q0-1.71.12-3.31L1787.3 610l4.71-12.24 46.07-25.89a36.81 36.81 0 012-4.36l-46.47 26.11 2.34-6.08a1.56 1.56 0 00.07-.19l10.23-26.58 46.11-25.91c-.27-.91-.55-1.84-.83-2.77l-43.69 24.55 5.11-13.27 36.32-20.37a28.15 28.15 0 01-.3-3.07l-34.44 19.35 3.84-10 .06-.14 11.17-29 27-15.15q-.51-1.42-.89-2.74L1831.18 496l9.75-25.33a1.19 1.19 0 00.06-.15l16.09-41.8a1.41 1.41 0 00-2.63-1l-14.62 38-8.36-28.55-2.56 1.31 9.25 31.58-11 28.54v.11L1817 525.12l-16-34.4c-.9.29-1.81.57-2.73.83l17.36 37.23-3.87 10.06-21.14-45c-.91.31-1.8.64-2.65 1l22.08 47-.34.19a1.41 1.41 0 00-.11 2.4l-5.71 14.83v.13l-9.24 24-15.66-33.31q-.92 1.26-2 2.46l16.22 34.5-2.38 6.17-17.37-36.94q-1.06 1-2.16 2.05l18.12 38.54-6.06 15.74v.12l-1.68 4.36-22.25-47.32c-.7.83-1.34 1.67-1.93 2.53l22.77 48.44-6.41 16.65v.12c1.11.35 2.23.64 3.36.89z"/><path class="asztalGyerekVirag-29" d="M1828.55 688.72c6-4.64 12.09-6.74 15.34-9.75 6.46-6 2.11-20.89 6.79-30.92s17.64-8.52 17.13-24.75 6.16-19.94 19-32.54 10.23-39.8 5-41.54-.85 6-9 14.48-28.57 4.69-37.63 11-2.48 21.33-13.45 30.3-30.2-1.91-39.59 7.25-1.22 27.08-9.14 37.37-11.77 7.27-20.94 14.53c-5.16 4.08 6.77 15 2.81 24.62z"/><path class="asztalGyerekVirag-30" d="M1785.09 688.72h-3.56l14.82-17.21.09-.1 9.91-11.5a1.35 1.35 0 01.87-2.12l.36-.06-4.75-49.37c.89 0 1.79-.05 2.71 0l4.55 47.26 6.72-7.8-3.64-39.08c.91.05 1.82.1 2.72.13l3.37 36.11 17.64-20.48.08-.09 19.02-22.2 1.84-31.39 2.72-.35-1.67 28.37 25.38-29.47a1.35 1.35 0 112 1.76l-27.93 32.43-.1.12-16.92 19.65 26.46-4.5c-.06.87-.09 1.79-.09 2.75l-29.13 5-19.29 22.42-.1.11-6.67 7.75 37.21-6.33a26.91 26.91 0 00-.72 2.86l-39.25 6.68-8.87 10.29 47.2-8c0 .93-.09 1.85-.14 2.76l-49.82 8.48-13 15.13zm-4.91 0h-2.71l-3.08-32c.88-.5 1.73-1 2.56-1.58l3.23 33.59zm-7.3 0h-2.71l-2.76-28.63q1.31-.56 2.6-1.15l2.87 29.78z"/><path id="Level03" class="asztalGyerekVirag-31" d="M1749.58 556.22c-16.18-8.6-20.28 10.11-14 25.6s38.56 67.6 40.25 88.26c.65 8 2.15 7.13 3.42 1.52 6.39-28.01-7.4-103.54-29.67-115.38z"/><g id="Level02"><path class="asztalGyerekVirag-32" d="M1783.84 485.24c18.55-16.7 30.15 6.68 26.94 29.23s-28.68 102.08-24.1 130c1.78 10.8-.48 10.14-4 3.14-17.68-34.98-24.38-139.38 1.16-162.37z"/><path class="asztalGyerekVirag-33" d="M1787.07 652.17c-.4 1-1.28.52-2.46-1.2-19.33-64.4 10.78-160.62 10.88-160.93a1 1 0 011.92.59c-.1.31-30.63 97.84-10.34 161.54z"/></g>
    <g id="Level01"><path class="asztalGyerekVirag-34" d="M1824.35 538.75c18-7.83 20.8 12.48 12.79 28.48s-46.77 68.9-50.29 90.8c-1.36 8.49-2.88 7.43-3.78 1.34-4.46-30.42 16.54-109.85 41.28-120.62z"/><path class="asztalGyerekVirag-35" d="M1785.21 663.9c-.55.67-1.08.07-1.53-1.51 1.63-52.78 48-117 48.16-117.17a.79.79 0 011.28.92c-.12.21-47.12 65.26-47.91 117.76z"/></g><path class="asztalGyerekVirag-4" d="M1799.04 652.21h-34.53l-9.01 8.13 7.36 28.38h37.83l7.37-28.38-9.02-8.13z"/><rect class="asztalGyerekVirag-6" x="1752.64" y="641.65" width="58.28" height="18.69" rx="2.86" ry="2.86"/><path class="asztalGyerekVirag-7" d="M1755.5 660.34l1.51 5.83h49.54l1.51-5.83h-52.56z"/></g><path id="Keret" class="asztalGyerekVirag-36" d="M0 0h1920v1080H0z"/></g></g></svg>