<svg id="hatter" xmlns="http://www.w3.org/2000/svg" xmlns:xlink="http://www.w3.org/1999/xlink" viewBox="0 0 1920 1080"><defs><style>.hatter-1{fill:url(#Nevtelen_szenetmenet_64);}.hatter-2{fill:url(#Nevtelen_szenetmenet_57);}.hatter-3{fill:none;}</style><linearGradient id="Nevtelen_szenetmenet_64" x1="1061.2" y1="625.91" x2="1976.33" y2="97.56" gradientUnits="userSpaceOnUse"><stop offset="0" stop-color="#ffd95e"/><stop offset="1" stop-color="#fdc30a"/></linearGradient><linearGradient id="Nevtelen_szenetmenet_57" x1="1087.11" y1="610.49" x2="1976.13" y2="97.22" gradientUnits="userSpaceOnUse"><stop offset="0" stop-color="#ffbc27"/><stop offset="1" stop-color="#fb9e01"/></linearGradient></defs><title>Eszkez 5</title><g id="Reteg_2" data-name="Reteg 2"><g id="Reteg_1" data-name="Reteg 1"><path class="hatter-1" d="M919.5,0S784.13,100.94,839.56,237c40.94,100.5,126,136.92,151.94,177,27.55,42.57,31.08,58,38.5,109,12.4,85.31,61.5,149.5,168.08,154.58,103.08,4.92,187.92,23.49,240,76.5,251.49,256,481.93,82.59,481.93,82.59V0Z"/><path class="hatter-2" d="M926.09,0s-117,83.94-61.53,220c40.94,100.5,126,136.92,151.94,177,27.55,42.57,31.08,58,38.5,109,12.4,85.31,61.5,149.5,168.08,154.58,103.08,4.92,187.57,23.84,240,76.5C1678,953,1920,833.08,1920,833.08V0Z"/><rect class="hatter-3" width="1920" height="1080"/></g></g></svg>